<?xml version="1.0" encoding="UTF-8"?>
<!DOCTYPE svg PUBLIC "-//W3C//DTD SVG 1.1//EN" "http://www.w3.org/Graphics/SVG/1.1/DTD/svg11.dtd">
<!-- Creator: CorelDRAW -->
<svg xmlns="http://www.w3.org/2000/svg" xml:space="preserve" width="156.292mm" height="50.1246mm" version="1.1" style="shape-rendering:geometricPrecision; text-rendering:geometricPrecision; image-rendering:optimizeQuality; fill-rule:evenodd; clip-rule:evenodd"
viewBox="0 0 6683.82 2143.58"
 xmlns:xlink="http://www.w3.org/1999/xlink"
 xmlns:xodm="http://www.corel.com/coreldraw/odm/2003">
 <defs>
  <style type="text/css">
   <![CDATA[
    .fil0 {fill:#12539F;fill-rule:nonzero}
   ]]>
  </style>
 </defs>
 <g id="Capa_x0020_1">
  <metadata id="CorelCorpID_0Corel-Layer"/>
  <g id="_1910086313552">
   <path class="fil0" d="M1463.58 1464c0,367.37 -297.7,665.2 -665.01,665.32l0 -1330.62c367.31,0.11 665.01,297.95 665.01,665.3z"/>
   <path class="fil0" d="M665.07 0l0 1330.62c-361.74,0 -655.98,-288.68 -665.07,-648.16l0 -34.29c9.1,-359.48 303.33,-648.16 665.07,-648.16z"/>
   <polygon class="fil0" points="665.3,1596.63 -0,1596.63 -0,1463.87 665.3,1463.87 "/>
   <polygon class="fil0" points="1463.87,665.43 1334.9,665.43 1334.9,0.01 1463.87,0.01 "/>
   <polygon class="fil0" points="1201.63,665.43 1068.88,665.43 1068.88,0.01 1201.63,0.01 "/>
   <polygon class="fil0" points="935.61,665.43 798.58,665.43 798.58,0.01 935.61,0.01 "/>
   <polygon class="fil0" points="665.3,1862.7 -0,1862.7 -0,1729.89 665.3,1729.89 "/>
   <polygon class="fil0" points="665.3,2129.31 -0,2129.31 -0,1995.97 665.3,1995.97 "/>
   <path class="fil0" d="M2590.59 666.74c0,51.54 -14.51,98.82 -43.28,141.86 -29.01,43.03 -72.29,77.56 -129.58,103.82 -57.3,26.27 -129.85,39.53 -217.67,39.53 -73.56,0 -144.11,-9.76 -211.67,-29.52 -67.54,-19.77 -121.82,-45.53 -163.11,-77.05l72.31 -160.37c39.53,28.02 86.31,51.04 140.11,69.04 54.04,18.01 108.56,27.04 163.61,27.04 42.29,0 76.05,-4.26 102.08,-12.52 25.77,-8.25 44.77,-20.01 57.04,-34.77 12.25,-15.01 18.51,-32.01 18.51,-51.28 0,-24.52 -9.76,-44.04 -29.03,-58.55 -19.25,-14.51 -44.52,-26.27 -76.05,-35.51 -31.77,-9.26 -66.55,-18.01 -104.58,-26.28 -38.27,-8.51 -76.31,-18.77 -114.58,-31.02 -38.04,-12.26 -72.81,-28.03 -104.33,-47.28 -31.77,-19.25 -57.3,-44.79 -77.05,-76.31 -19.78,-31.53 -29.52,-71.8 -29.52,-120.83 0,-52.79 14.26,-100.58 42.77,-144.11 28.53,-43.29 71.31,-78.08 128.84,-103.83 57.3,-25.78 129.36,-38.79 216.18,-38.79 58.04,0 114.82,6.76 171.11,20.26 56.05,13.77 105.57,34.02 148.6,61.3l-65.79 161.62c-43.03,-24.52 -86.05,-42.79 -128.84,-54.54 -43.03,-11.77 -85.07,-17.77 -126.34,-17.77 -41.29,0 -75.06,4.75 -101.34,14.51 -26.27,9.76 -45.03,22.02 -56.53,37.52 -11.27,15.27 -17.02,33.04 -17.02,53.3 0,23.52 9.76,42.53 29.03,57.04 19.25,14.5 44.52,26.26 76.29,34.77 31.53,9.01 66.3,17.76 104.32,26.52 38.29,8.75 76.31,18.75 114.6,30.01 38.04,11.51 72.79,26.78 104.33,46.04 31.77,19.52 57.28,44.78 77.05,76.31 19.78,31.51 29.52,71.55 29.52,119.83z"/>
   <polygon class="fil0" points="3449.22,765.32 3449.22,936.19 2736.46,936.19 2736.46,15.76 3432.2,15.76 3432.2,186.64 2948.36,186.64 2948.36,386.54 3375.68,386.54 3375.68,552.16 2948.36,552.16 2948.36,765.32 "/>
   <path class="fil0" d="M3831.75 189.39l173.63 0c65.79,0 114.84,14.01 147.35,42.03 32.28,28.03 48.53,67.56 48.53,118.34 0,50.03 -16.25,89.06 -48.53,117.59 -32.51,28.51 -81.56,42.79 -147.35,42.79l-173.63 0 0 -320.74zm396.53 451.58c0.75,-0.26 1.25,-0.51 2.01,-0.75 59.55,-26.27 105.57,-64.04 138.1,-113.59 32.29,-49.53 48.53,-108.58 48.53,-176.88 0,-69.3 -16.25,-128.85 -48.53,-178.89 -32.53,-50.03 -78.55,-88.3 -138.1,-115.06 -59.53,-26.78 -130.59,-40.04 -213.16,-40.04l-398.28 0 0 920.43 212.9 0 0 -256.44 185.38 0c3.52,0 6.76,0 10,-0.26l176.89 256.7 229.92 0 -205.66 -295.21z"/>
   <polygon class="fil0" points="5670.09,765.32 5670.09,936.19 4957.33,936.19 4957.33,15.76 5652.82,15.76 5652.82,186.64 5168.98,186.64 5168.98,386.54 5596.28,386.54 5596.28,552.16 5168.98,552.16 5168.98,765.32 "/>
   <polygon class="fil0" points="6683.82,15.77 6683.82,936.19 6508.95,936.19 6050.11,377.52 6050.11,936.19 5839.72,936.19 5839.72,15.77 6015.85,15.77 6473.42,574.18 6473.42,15.77 "/>
   <path class="fil0" d="M2155.53 1806.82l131.6 -316.23 131.09 316.23 -262.69 0zm227.42 -504.37l-189.14 0 -368.52 826.86 196.14 0 73.8 -177.13 383.29 0 73.31 177.13 200.89 0 -369.77 -826.86z"/>
   <path class="fil0" d="M3441.22 1882.64l122.83 113.33c-39.27,48.02 -87.82,84.56 -145.84,109.83 -57.8,25.27 -122.85,37.77 -195.41,37.77 -63.79,0 -123.08,-10.5 -177.87,-31.27 -54.79,-20.76 -102.08,-50.54 -142.36,-89.31 -40.02,-38.53 -71.3,-83.82 -93.82,-135.86 -22.51,-51.79 -33.76,-109.08 -33.76,-171.13 0,-62.29 11.25,-119.33 33.76,-171.37 22.52,-52.05 54.04,-97.32 94.57,-135.85 40.52,-38.53 88.06,-68.31 142.36,-89.07 54.28,-21.02 113.83,-31.27 178.37,-31.27 71.57,0 136.37,12.26 194.17,37.03 58.02,24.77 106.57,61.3 145.84,109.32l-122.83 113.34c-28.27,-32.29 -59.8,-56.29 -94.32,-72.55 -34.77,-16.28 -72.57,-24.28 -113.59,-24.28 -38.51,0 -73.8,6.26 -106.33,19.03 -32.27,12.51 -60.05,30.5 -83.81,54.28 -23.52,23.52 -41.79,51.55 -54.79,83.81 -13,32.28 -19.52,68.06 -19.52,107.58 0,39.29 6.52,75.07 19.52,107.33 13,32.54 31.27,60.3 54.79,84.08 23.76,23.51 51.54,41.76 83.81,54.28 32.53,12.51 67.81,18.75 106.33,18.75 41.02,0 78.82,-8 113.59,-24 34.52,-16.28 66.05,-40.8 94.32,-73.8z"/>
   <path class="fil0" d="M4289.34 1882.64l122.85 113.33c-39.3,48.02 -87.83,84.56 -145.87,109.83 -57.78,25.27 -122.83,37.77 -195.4,37.77 -63.79,0 -123.08,-10.5 -177.87,-31.27 -54.78,-20.76 -102.08,-50.54 -142.36,-89.31 -40.02,-38.53 -71.3,-83.82 -93.82,-135.86 -22.51,-51.79 -33.76,-109.08 -33.76,-171.13 0,-62.29 11.26,-119.33 33.76,-171.37 22.52,-52.05 54.04,-97.32 94.58,-135.85 40.52,-38.53 88.07,-68.31 142.36,-89.07 54.29,-21.02 113.83,-31.27 178.37,-31.27 71.57,0 136.36,12.26 194.15,37.03 58.04,24.77 106.57,61.3 145.87,109.32l-122.85 113.34c-28.27,-32.29 -59.8,-56.29 -94.32,-72.55 -34.77,-16.28 -72.56,-24.28 -113.57,-24.28 -38.54,0 -73.82,6.26 -106.33,19.03 -32.29,12.51 -60.06,30.5 -83.82,54.28 -23.5,23.52 -41.77,51.55 -54.79,83.81 -13,32.28 -19.52,68.06 -19.52,107.58 0,39.29 6.52,75.07 19.52,107.33 13.02,32.54 31.29,60.3 54.79,84.08 23.76,23.51 51.54,41.76 83.82,54.28 32.51,12.51 67.78,18.75 106.33,18.75 41.01,0 78.8,-8 113.57,-24 34.52,-16.28 66.05,-40.8 94.32,-73.8z"/>
   <polygon class="fil0" points="4732.4,2129.31 4541.01,2129.31 4541.01,1302.44 4732.4,1302.44 "/>
   <polygon class="fil0" points="5579.28,1065.03 5365.62,1235.15 5221.52,1235.15 5380.89,1065.03 "/>
   <path class="fil0" d="M5568.02 1823.33c-13.02,32.53 -31.27,60.3 -54.79,84.06 -23.77,23.52 -51.04,41.77 -82.05,54.29 -31.29,12.51 -65.29,18.75 -102.33,18.75 -37.04,0 -71.3,-6.24 -102.83,-18.75 -31.52,-12.52 -58.78,-30.77 -82.04,-54.29 -23.28,-23.76 -41.29,-51.78 -54.29,-84.56 -13.02,-32.53 -19.52,-68.31 -19.52,-106.83 0,-39.52 6.5,-75.3 19.52,-107.58 13,-32.27 31.26,-60.29 55.03,-83.82 23.52,-23.76 50.8,-41.76 82.06,-54.26 31.03,-12.76 65.04,-19.02 102.08,-19.02 37.04,0 71.3,6.26 102.83,19.02 31.53,12.51 58.78,30.5 82.06,54.26 23.26,23.54 41.28,51.55 54.29,83.82 13,32.28 19.51,68.06 19.51,107.58 0,39.27 -6.5,75.06 -19.51,107.33zm179.13 -277.96c-23.01,-51.78 -54.54,-96.82 -95.08,-135.36 -40.78,-38.51 -88.3,-68.54 -143.09,-89.81 -54.79,-21.27 -114.82,-31.77 -180.13,-31.77 -64.56,0 -124.34,10.5 -179.63,31.77 -55.04,21.27 -103.07,51.3 -144.11,89.81 -40.78,38.53 -72.55,83.82 -95.06,135.86 -22.27,52.04 -33.52,108.59 -33.52,170.13 0,61.3 11.26,118.08 33.52,170.12 22.51,51.79 54.04,97.08 94.56,135.85 40.54,38.53 88.56,68.55 144.11,89.81 55.55,21.03 116.08,31.79 181.39,31.79 64.55,0 124.09,-10.76 178.88,-31.79 54.79,-21.26 102.32,-51.04 143.09,-89.31 40.54,-38.27 72.07,-83.57 95.08,-135.86 22.76,-52.29 34.28,-109.32 34.28,-170.62 0,-62.29 -11.51,-119.09 -34.28,-170.63z"/>
   <polygon class="fil0" points="6683.82,1302.45 6683.82,2129.31 6526.71,2129.31 6114.42,1627.69 6114.42,2129.31 5925.53,2129.31 5925.53,1302.45 6083.65,1302.45 6494.69,1804.06 6494.69,1302.45 "/>
  </g>
 </g>
</svg>
