<?xml version="1.0" encoding="UTF-8"?>
<!DOCTYPE svg PUBLIC "-//W3C//DTD SVG 1.1//EN" "http://www.w3.org/Graphics/SVG/1.1/DTD/svg11.dtd">
<!-- Creator: CorelDRAW -->
<svg xmlns="http://www.w3.org/2000/svg" xml:space="preserve" width="32.3605mm" height="47.0705mm" version="1.1" style="shape-rendering:geometricPrecision; text-rendering:geometricPrecision; image-rendering:optimizeQuality; fill-rule:evenodd; clip-rule:evenodd"
viewBox="0 0 286.37 416.55"
 xmlns:xlink="http://www.w3.org/1999/xlink"
 xmlns:xodm="http://www.corel.com/coreldraw/odm/2003">
 <defs>
  <style type="text/css">
   <![CDATA[
    .fil0 {fill:#1453a0;fill-rule:nonzero}
   ]]>
  </style>
 </defs>
 <g id="Capa_x0020_1">
  <metadata id="CorelCorpID_0Corel-Layer"/>
  <path class="fil0" d="M286.32 286.4c0,71.87 -58.24,130.13 -130.1,130.15l0 -260.3c71.85,0.02 130.1,58.28 130.1,130.15z"/>
  <path class="fil0" d="M130.11 0l0 260.3c-70.76,0 -128.33,-56.47 -130.11,-126.8l0 -6.71c1.78,-70.32 59.34,-126.8 130.11,-126.8z"/>
  <polygon class="fil0" points="130.15,312.34 0,312.34 0,286.38 130.15,286.38 "/>
  <polygon class="fil0" points="286.37,130.17 261.14,130.17 261.14,0 286.37,0 "/>
  <polygon class="fil0" points="235.07,130.17 209.1,130.17 209.1,0 235.07,0 "/>
  <polygon class="fil0" points="183.03,130.17 156.22,130.17 156.22,0 183.03,0 "/>
  <polygon class="fil0" points="130.15,364.4 0,364.4 0,338.42 130.15,338.42 "/>
  <polygon class="fil0" points="130.15,416.55 0,416.55 0,390.47 130.15,390.47 "/>
 </g>
</svg>
