<?xml version="1.0" encoding="UTF-8"?>
<!DOCTYPE svg PUBLIC "-//W3C//DTD SVG 1.1//EN" "http://www.w3.org/Graphics/SVG/1.1/DTD/svg11.dtd">
<!-- Creator: CorelDRAW -->
<svg xmlns="http://www.w3.org/2000/svg" xml:space="preserve" width="34.1326mm" height="48.0211mm" version="1.1" style="shape-rendering:geometricPrecision; text-rendering:geometricPrecision; image-rendering:optimizeQuality; fill-rule:evenodd; clip-rule:evenodd"
viewBox="0 0 94.56 133.03"
 xmlns:xlink="http://www.w3.org/1999/xlink"
 xmlns:xodm="http://www.corel.com/coreldraw/odm/2003">
 <defs>
  <style type="text/css">
   <![CDATA[
    .fil1 {fill:#58458A;fill-rule:nonzero}
    .fil0 {fill:#58458A;fill-rule:nonzero}
   ]]>
  </style>
 </defs>
 <g id="Capa_x0020_1">
  <metadata id="CorelCorpID_0Corel-Layer"/>
  <g id="_1946355617888">
   <path class="fil0" d="M91.18 94.04c-1.5,22.45 -20.91,39.43 -43.35,37.93l5.44 -81.3c22.44,1.51 39.41,20.92 37.91,43.37z"/>
   <path class="fil1" d="M40.05 2.08l4.34 81.37c-22.12,1.18 -41.06,-15.51 -42.78,-37.47l-0.11 -2.1c-0.62,-22.01 16.44,-40.62 38.56,-41.8z"/>
   <polygon class="fil1" points="42.5,99.39 1.87,102.36 1.28,94.25 41.91,91.28 "/>
   <polygon class="fil1" points="94.56,49.25 86.7,50.09 82.37,9.57 90.22,8.73 "/>
   <polygon class="fil1" points="71.95,44.24 63.92,43 70.13,2.73 78.16,3.97 "/>
   <polygon class="fil1" points="58.81,40.75 50.42,40.75 50.42,0 58.81,0 "/>
   <polygon class="fil1" points="41.46,112.15 1.06,117.48 -0,109.42 40.39,104.09 "/>
   <polygon class="fil1" points="41.52,133.03 0.86,130.43 1.38,122.28 42.04,124.88 "/>
  </g>
 </g>
</svg>
