<?xml version="1.0" encoding="UTF-8"?>
<!DOCTYPE svg PUBLIC "-//W3C//DTD SVG 1.1//EN" "http://www.w3.org/Graphics/SVG/1.1/DTD/svg11.dtd">
<!-- Creator: CorelDRAW -->
<svg xmlns="http://www.w3.org/2000/svg" xml:space="preserve" width="33.7252mm" height="48.3244mm" version="1.1" style="shape-rendering:geometricPrecision; text-rendering:geometricPrecision; image-rendering:optimizeQuality; fill-rule:evenodd; clip-rule:evenodd"
viewBox="0 0 59.87 85.79"
 xmlns:xlink="http://www.w3.org/1999/xlink"
 xmlns:xodm="http://www.corel.com/coreldraw/odm/2003">
 <defs>
  <style type="text/css">
   <![CDATA[
    .fil0 {fill:#58458A;fill-rule:nonzero}
   ]]>
  </style>
 </defs>
 <g id="Capa_x0020_1">
  <metadata id="CorelCorpID_0Corel-Layer"/>
  <g id="_1946376204864">
   <path class="fil0" d="M59.8 57.25c1.07,14.38 -9.71,26.9 -24.08,27.98l-3.88 -52.07c14.37,-1.07 26.89,9.72 27.97,24.1z"/>
   <path class="fil0" d="M26.39 0l3.11 52.13c-14.17,0.84 -26.37,-9.78 -27.57,-23.84l-0.08 -1.34c-0.48,-14.1 10.37,-26.1 24.54,-26.94z"/>
   <polygon class="fil0" points="28.69,62.23 2.69,64.6 2.21,59.41 28.22,57.04 "/>
   <polygon class="fil0" points="59.85,26.88 54.78,26.88 54.78,0.77 59.85,0.77 "/>
   <polygon class="fil0" points="51.73,26.25 46.59,27.13 42.17,1.4 47.31,0.52 "/>
   <polygon class="fil0" points="37.54,27.11 32.2,26.47 35.31,0.54 40.65,1.18 "/>
   <polygon class="fil0" points="26.06,73.96 -0,72.31 0.33,67.11 26.39,68.75 "/>
   <polygon class="fil0" points="28.72,82.84 2.78,85.79 2.19,80.59 28.13,77.64 "/>
  </g>
 </g>
</svg>
