<?xml version="1.0" encoding="UTF-8"?>
<!DOCTYPE svg PUBLIC "-//W3C//DTD SVG 1.1//EN" "http://www.w3.org/Graphics/SVG/1.1/DTD/svg11.dtd">
<!-- Creator: CorelDRAW -->
<svg xmlns="http://www.w3.org/2000/svg" xml:space="preserve" width="34.262mm" height="51.3678mm" version="1.1" style="shape-rendering:geometricPrecision; text-rendering:geometricPrecision; image-rendering:optimizeQuality; fill-rule:evenodd; clip-rule:evenodd"
viewBox="0 0 59.04 88.51"
 xmlns:xlink="http://www.w3.org/1999/xlink"
 xmlns:xodm="http://www.corel.com/coreldraw/odm/2003">
 <defs>
  <style type="text/css">
   <![CDATA[
    .str0 {stroke:#9F3774;stroke-width:1.22;stroke-miterlimit:10}
    .fil0 {fill:none;fill-rule:nonzero}
   ]]>
  </style>
 </defs>
 <g id="Capa_x0020_1">
  <metadata id="CorelCorpID_0Corel-Layer"/>
  <g id="_1909815134224">
   <path class="fil0 str0" d="M56.87 62.56c0,13.99 -11.34,25.34 -25.33,25.34l0 -50.68c13.99,0 25.33,11.35 25.33,25.34z"/>
   <path class="fil0 str0" d="M28.33 4.52l-4.19 50.51c-13.73,-1.14 -23.99,-13.02 -23.21,-26.7l0.11 -1.3c1.48,-13.62 13.55,-23.65 27.29,-22.51z"/>
   <polygon class="fil0 str0" points="25.75,66.13 0.71,62.22 1.49,57.22 26.53,61.14 "/>
   <polygon class="fil0 str0" points="55.02,28.95 50.15,28.3 53.48,3.17 58.35,3.82 "/>
   <polygon class="fil0 str0" points="45.68,25.95 40.63,25.95 40.63,0.61 45.68,0.61 "/>
   <polygon class="fil0 str0" points="37.95,28.38 32.76,28.94 30.01,3.75 35.2,3.18 "/>
   <polygon class="fil0 str0" points="26.29,74.34 0.95,74.34 0.95,69.28 26.29,69.28 "/>
   <polygon class="fil0 str0" points="25.68,86.6 0.7,82.31 1.56,77.31 26.54,81.6 "/>
  </g>
 </g>
</svg>
