<?xml version="1.0" encoding="UTF-8"?>
<!DOCTYPE svg PUBLIC "-//W3C//DTD SVG 1.1//EN" "http://www.w3.org/Graphics/SVG/1.1/DTD/svg11.dtd">
<!-- Creator: CorelDRAW -->
<svg xmlns="http://www.w3.org/2000/svg" xml:space="preserve" width="33.8142mm" height="49.5431mm" version="1.1" style="shape-rendering:geometricPrecision; text-rendering:geometricPrecision; image-rendering:optimizeQuality; fill-rule:evenodd; clip-rule:evenodd"
viewBox="0 0 55.02 80.61"
 xmlns:xlink="http://www.w3.org/1999/xlink"
 xmlns:xodm="http://www.corel.com/coreldraw/odm/2003">
 <defs>
  <style type="text/css">
   <![CDATA[
    .fil0 {fill:#E6285F;fill-rule:nonzero}
   ]]>
  </style>
 </defs>
 <g id="Capa_x0020_1">
  <metadata id="CorelCorpID_0Corel-Layer"/>
  <g id="_1946374597712">
   <path class="fil0" d="M54.99 55.6c0.61,13.2 -9.59,24.39 -22.79,25.01l-2.21 -47.81c13.2,-0.61 24.39,9.6 25,22.8z"/>
   <path class="fil0" d="M28.59 1.59l-5.46 47.55c-12.93,-1.48 -22.26,-13.01 -21.11,-25.89l0.14 -1.23c1.8,-12.81 13.5,-21.92 26.42,-20.43z"/>
   <polygon class="fil0" points="26.16,55.96 2.42,58.99 1.81,54.26 25.55,51.22 "/>
   <polygon class="fil0" points="53.73,25.95 49.09,25.95 49.09,2.02 53.73,2.02 "/>
   <polygon class="fil0" points="45.6,23.92 40.83,24.07 40.11,0.14 44.88,0 "/>
   <polygon class="fil0" points="35.08,26.57 30.19,25.98 33.03,2.22 37.93,2.8 "/>
   <polygon class="fil0" points="23.93,66.43 -0,66.43 -0,61.65 23.93,61.65 "/>
   <polygon class="fil0" points="28.12,74.44 4.39,77.5 3.77,72.75 27.51,69.69 "/>
  </g>
 </g>
</svg>
