<?xml version="1.0" encoding="UTF-8"?>
<!DOCTYPE svg PUBLIC "-//W3C//DTD SVG 1.1//EN" "http://www.w3.org/Graphics/SVG/1.1/DTD/svg11.dtd">
<!-- Creator: CorelDRAW -->
<svg xmlns="http://www.w3.org/2000/svg" xml:space="preserve" width="34.6374mm" height="48.6716mm" version="1.1" style="shape-rendering:geometricPrecision; text-rendering:geometricPrecision; image-rendering:optimizeQuality; fill-rule:evenodd; clip-rule:evenodd"
viewBox="0 0 55.04 77.34"
 xmlns:xlink="http://www.w3.org/1999/xlink"
 xmlns:xodm="http://www.corel.com/coreldraw/odm/2003">
 <defs>
  <style type="text/css">
   <![CDATA[
    .str0 {stroke:#E6285F;stroke-width:1.12;stroke-miterlimit:10}
    .fil0 {fill:none;fill-rule:nonzero}
   ]]>
  </style>
 </defs>
 <g id="Capa_x0020_1">
  <metadata id="CorelCorpID_0Corel-Layer"/>
  <g id="_1946379648032">
   <path class="fil0 str0" d="M54.39 51.28c1.13,12.86 -8.38,24.19 -21.23,25.32l-4.08 -46.56c12.85,-1.12 24.19,8.39 25.31,21.24z"/>
   <path class="fil0 str0" d="M27.38 1.11l-6.91 46.23c-12.57,-1.88 -21.29,-13.43 -19.74,-25.97l0.18 -1.19c2.18,-12.44 13.9,-20.94 26.47,-19.07z"/>
   <polygon class="fil0 str0" points="26.59,55.58 3.38,58.31 2.83,53.68 26.04,50.95 "/>
   <polygon class="fil0 str0" points="54.16,25.68 49.63,25.68 49.63,2.3 54.16,2.3 "/>
   <polygon class="fil0 str0" points="43.18,24.48 38.59,23.67 42.62,0.65 47.22,1.45 "/>
   <polygon class="fil0 str0" points="35.89,25.83 31.08,25.83 31.08,2.46 35.89,2.46 "/>
   <polygon class="fil0 str0" points="26.4,66.31 3.02,66.31 3.02,61.65 26.4,61.65 "/>
   <polygon class="fil0 str0" points="26.56,74.6 3.29,76.73 2.86,72.07 26.13,69.93 "/>
  </g>
 </g>
</svg>
