<?xml version="1.0" encoding="UTF-8"?>
<!DOCTYPE svg PUBLIC "-//W3C//DTD SVG 1.1//EN" "http://www.w3.org/Graphics/SVG/1.1/DTD/svg11.dtd">
<!-- Creator: CorelDRAW -->
<svg xmlns="http://www.w3.org/2000/svg" xml:space="preserve" width="33.7252mm" height="48.3243mm" version="1.1" style="shape-rendering:geometricPrecision; text-rendering:geometricPrecision; image-rendering:optimizeQuality; fill-rule:evenodd; clip-rule:evenodd"
viewBox="0 0 50.18 71.9"
 xmlns:xlink="http://www.w3.org/1999/xlink"
 xmlns:xodm="http://www.corel.com/coreldraw/odm/2003">
 <defs>
  <style type="text/css">
   <![CDATA[
    .fil0 {fill:#9F3774;fill-rule:nonzero}
   ]]>
  </style>
 </defs>
 <g id="Capa_x0020_1">
  <metadata id="CorelCorpID_0Corel-Layer"/>
  <g id="_1946381895856">
   <path class="fil0" d="M50.12 47.98c0.9,12.05 -8.14,22.55 -20.19,23.45l-3.25 -43.64c12.05,-0.89 22.54,8.15 23.44,20.2z"/>
   <path class="fil0" d="M22.12 0l2.6 43.69c-11.88,0.71 -22.1,-8.19 -23.1,-19.98l-0.07 -1.13c-0.4,-11.82 8.69,-21.87 20.57,-22.58z"/>
   <polygon class="fil0" points="24.04,52.16 2.25,54.14 1.86,49.8 23.65,47.81 "/>
   <polygon class="fil0" points="50.16,22.53 45.92,22.53 45.92,0.64 50.16,0.64 "/>
   <polygon class="fil0" points="43.35,22 39.05,22.74 35.34,1.17 39.65,0.43 "/>
   <polygon class="fil0" points="31.46,22.72 26.99,22.18 29.59,0.45 34.07,0.99 "/>
   <polygon class="fil0" points="21.84,61.98 -0,60.61 0.27,56.25 22.11,57.62 "/>
   <polygon class="fil0" points="24.07,69.43 2.33,71.9 1.83,67.54 23.57,65.07 "/>
  </g>
 </g>
</svg>
