<?xml version="1.0" encoding="UTF-8"?>
<!DOCTYPE svg PUBLIC "-//W3C//DTD SVG 1.1//EN" "http://www.w3.org/Graphics/SVG/1.1/DTD/svg11.dtd">
<!-- Creator: CorelDRAW -->
<svg xmlns="http://www.w3.org/2000/svg" xml:space="preserve" width="33.2726mm" height="47.995mm" version="1.1" style="shape-rendering:geometricPrecision; text-rendering:geometricPrecision; image-rendering:optimizeQuality; fill-rule:evenodd; clip-rule:evenodd"
viewBox="0 0 46.88 67.63"
 xmlns:xlink="http://www.w3.org/1999/xlink"
 xmlns:xodm="http://www.corel.com/coreldraw/odm/2003">
 <defs>
  <style type="text/css">
   <![CDATA[
    .str0 {stroke:#1453A0;stroke-width:0.99;stroke-miterlimit:10}
    .fil0 {fill:none;fill-rule:nonzero}
   ]]>
  </style>
 </defs>
 <g id="Capa_x0020_1">
  <metadata id="CorelCorpID_0Corel-Layer"/>
  <g id="_1910328253536">
   <path class="fil0 str0" d="M46.35 47.04c-0.69,11.42 -10.51,20.12 -21.93,19.43l2.51 -41.37c11.42,0.7 20.12,10.52 19.42,21.94z"/>
   <path class="fil0 str0" d="M20.24 0.52l2.11 41.39c-11.25,0.57 -20.87,-7.94 -21.72,-19.11l-0.05 -1.07c-0.29,-11.2 8.41,-20.65 19.66,-21.22z"/>
   <polygon class="fil0 str0" points="21.5,50.54 0.78,50.54 0.78,46.41 21.5,46.41 "/>
   <polygon class="fil0 str0" points="46.38,21.53 42.36,21.53 42.36,0.81 46.38,0.81 "/>
   <polygon class="fil0 str0" points="40.51,20.79 36.48,21.73 31.77,1.55 35.8,0.61 "/>
   <polygon class="fil0 str0" points="29.92,21.53 25.65,21.53 25.65,0.81 29.92,0.81 "/>
   <polygon class="fil0 str0" points="21.7,56.98 1.3,60.61 0.58,56.54 20.98,52.91 "/>
   <polygon class="fil0 str0" points="21.5,67.13 0.78,67.13 0.78,62.98 21.5,62.98 "/>
  </g>
 </g>
</svg>
