<?xml version="1.0" encoding="UTF-8"?>
<!DOCTYPE svg PUBLIC "-//W3C//DTD SVG 1.1//EN" "http://www.w3.org/Graphics/SVG/1.1/DTD/svg11.dtd">
<!-- Creator: CorelDRAW -->
<svg xmlns="http://www.w3.org/2000/svg" xml:space="preserve" width="33.8142mm" height="49.5431mm" version="1.1" style="shape-rendering:geometricPrecision; text-rendering:geometricPrecision; image-rendering:optimizeQuality; fill-rule:evenodd; clip-rule:evenodd"
viewBox="0 0 46.59 68.26"
 xmlns:xlink="http://www.w3.org/1999/xlink"
 xmlns:xodm="http://www.corel.com/coreldraw/odm/2003">
 <defs>
  <style type="text/css">
   <![CDATA[
    .fil0 {fill:#1453A0;fill-rule:nonzero}
   ]]>
  </style>
 </defs>
 <g id="Capa_x0020_1">
  <metadata id="CorelCorpID_0Corel-Layer"/>
  <g id="_1946249689536">
   <path class="fil0" d="M46.57 47.09c0.52,11.18 -8.12,20.66 -19.3,21.18l-1.87 -40.48c11.18,-0.51 20.65,8.13 21.17,19.31z"/>
   <path class="fil0" d="M24.21 1.34l-4.62 40.26c-10.95,-1.26 -18.85,-11.01 -17.87,-21.92l0.12 -1.04c1.52,-10.85 11.43,-18.56 22.38,-17.3z"/>
   <polygon class="fil0" points="22.15,47.39 2.05,49.96 1.54,45.94 21.64,43.38 "/>
   <polygon class="fil0" points="45.5,21.98 41.57,21.98 41.57,1.71 45.5,1.71 "/>
   <polygon class="fil0" points="38.61,20.26 34.57,20.38 33.96,0.12 38,0 "/>
   <polygon class="fil0" points="29.71,22.5 25.56,22 27.97,1.88 32.12,2.37 "/>
   <polygon class="fil0" points="20.26,56.25 -0,56.25 -0,52.2 20.26,52.2 "/>
   <polygon class="fil0" points="23.81,63.04 3.71,65.63 3.2,61.6 23.29,59.01 "/>
  </g>
 </g>
</svg>
