<?xml version="1.0" encoding="UTF-8"?>
<!DOCTYPE svg PUBLIC "-//W3C//DTD SVG 1.1//EN" "http://www.w3.org/Graphics/SVG/1.1/DTD/svg11.dtd">
<!-- Creator: CorelDRAW -->
<svg xmlns="http://www.w3.org/2000/svg" xml:space="preserve" width="34.3826mm" height="51.7654mm" version="1.1" style="shape-rendering:geometricPrecision; text-rendering:geometricPrecision; image-rendering:optimizeQuality; fill-rule:evenodd; clip-rule:evenodd"
viewBox="0 0 46.31 69.72"
 xmlns:xlink="http://www.w3.org/1999/xlink"
 xmlns:xodm="http://www.corel.com/coreldraw/odm/2003">
 <defs>
  <style type="text/css">
   <![CDATA[
    .str0 {stroke:#9F3774;stroke-width:0.95;stroke-miterlimit:10}
    .fil0 {fill:none;fill-rule:nonzero}
   ]]>
  </style>
 </defs>
 <g id="Capa_x0020_1">
  <metadata id="CorelCorpID_0Corel-Layer"/>
  <g id="_1946270929008">
   <path class="fil0 str0" d="M45.79 48.12c0.73,10.91 -7.52,20.36 -18.43,21.09l-2.66 -39.53c10.91,-0.73 20.35,7.52 21.08,18.44z"/>
   <path class="fil0 str0" d="M18.05 0.53l4.7 39.34c-10.69,1.28 -20.41,-6.22 -21.95,-16.81l-0.12 -1.01c-1,-10.66 6.68,-20.23 17.37,-21.51z"/>
   <polygon class="fil0 str0" points="20.23,50.05 0.52,48.13 0.9,44.2 20.62,46.12 "/>
   <polygon class="fil0 str0" points="44.98,21.2 41.15,21.49 39.68,1.73 43.51,1.45 "/>
   <polygon class="fil0 str0" points="34.51,22.49 30.6,21.87 33.69,2.3 37.59,2.92 "/>
   <polygon class="fil0 str0" points="27.52,21.53 23.46,21.12 25.44,1.41 29.5,1.82 "/>
   <polygon class="fil0 str0" points="20.69,55.3 0.89,55.3 0.89,51.34 20.69,51.34 "/>
   <polygon class="fil0 str0" points="20.23,65.91 0.52,63.99 0.9,60.04 20.62,61.96 "/>
  </g>
 </g>
</svg>
