<?xml version="1.0" encoding="UTF-8"?>
<!DOCTYPE svg PUBLIC "-//W3C//DTD SVG 1.1//EN" "http://www.w3.org/Graphics/SVG/1.1/DTD/svg11.dtd">
<!-- Creator: CorelDRAW -->
<svg xmlns="http://www.w3.org/2000/svg" xml:space="preserve" width="34.6374mm" height="48.6716mm" version="1.1" style="shape-rendering:geometricPrecision; text-rendering:geometricPrecision; image-rendering:optimizeQuality; fill-rule:evenodd; clip-rule:evenodd"
viewBox="0 0 91.33 128.33"
 xmlns:xlink="http://www.w3.org/1999/xlink"
 xmlns:xodm="http://www.corel.com/coreldraw/odm/2003">
 <defs>
  <style type="text/css">
   <![CDATA[
    .str0 {stroke:#1453A0;stroke-width:1.86;stroke-miterlimit:10}
    .fil0 {fill:none;fill-rule:nonzero}
   ]]>
  </style>
 </defs>
 <g id="Capa_x0020_1">
  <metadata id="CorelCorpID_0Corel-Layer"/>
  <g id="_1946355623840">
   <path class="fil0 str0" d="M90.25 85.09c1.87,21.33 -13.9,40.14 -35.23,42.02l-6.77 -77.26c21.33,-1.86 40.13,13.91 42,35.25z"/>
   <path class="fil0 str0" d="M45.43 1.84l-11.46 76.71c-20.85,-3.12 -35.33,-22.29 -32.76,-43.09l0.3 -1.98c3.62,-20.64 23.07,-34.75 43.92,-31.64z"/>
   <polygon class="fil0 str0" points="44.12,92.22 5.6,96.76 4.7,89.07 43.21,84.54 "/>
   <polygon class="fil0 str0" points="89.87,42.6 82.35,42.6 82.35,3.82 89.87,3.82 "/>
   <polygon class="fil0 str0" points="71.65,40.62 64.03,39.28 70.72,1.08 78.35,2.41 "/>
   <polygon class="fil0 str0" points="59.55,42.87 51.56,42.87 51.56,4.08 59.55,4.08 "/>
   <polygon class="fil0 str0" points="43.8,110.03 5.02,110.03 5.02,102.28 43.8,102.28 "/>
   <polygon class="fil0 str0" points="44.07,123.77 5.45,127.32 4.74,119.58 43.36,116.04 "/>
  </g>
 </g>
</svg>
