<?xml version="1.0" encoding="UTF-8"?>
<!DOCTYPE svg PUBLIC "-//W3C//DTD SVG 1.1//EN" "http://www.w3.org/Graphics/SVG/1.1/DTD/svg11.dtd">
<!-- Creator: CorelDRAW -->
<svg xmlns="http://www.w3.org/2000/svg" xml:space="preserve" width="32.8228mm" height="46.4818mm" version="1.1" style="shape-rendering:geometricPrecision; text-rendering:geometricPrecision; image-rendering:optimizeQuality; fill-rule:evenodd; clip-rule:evenodd"
viewBox="0 0 76.99 109.03"
 xmlns:xlink="http://www.w3.org/1999/xlink"
 xmlns:xodm="http://www.corel.com/coreldraw/odm/2003">
 <defs>
  <style type="text/css">
   <![CDATA[
    .fil0 {fill:#E6285F;fill-rule:nonzero}
   ]]>
  </style>
 </defs>
 <g id="Capa_x0020_1">
  <metadata id="CorelCorpID_0Corel-Layer"/>
  <g id="_1946276208928">
   <path class="fil0" d="M75.28 76.41c-1.09,19.02 -17.39,33.55 -36.4,32.46l3.96 -68.88c19.01,1.1 33.54,17.4 32.45,36.42z"/>
   <path class="fil0" d="M37.94 2.07l-6.58 68.68c-18.67,-1.79 -32.43,-18.14 -31.12,-36.74l0.17 -1.77c2.25,-18.51 18.86,-31.96 37.53,-30.17z"/>
   <polygon class="fil0" points="34.74,83.06 0.24,83.06 0.24,76.17 34.74,76.17 "/>
   <polygon class="fil0" points="76.99,36.5 70.33,37.06 67.47,2.67 74.14,2.12 "/>
   <polygon class="fil0" points="60.73,35.04 53.89,34.32 57.49,0 64.34,0.72 "/>
   <polygon class="fil0" points="52.31,35.75 45.22,36.27 42.7,1.86 49.79,1.34 "/>
   <polygon class="fil0" points="34.35,98.44 -0,95.24 0.64,88.38 34.99,91.58 "/>
   <polygon class="fil0" points="34.55,109.03 0.09,107.29 0.44,100.38 34.9,102.13 "/>
  </g>
 </g>
</svg>
