<?xml version="1.0" encoding="UTF-8"?>
<!DOCTYPE svg PUBLIC "-//W3C//DTD SVG 1.1//EN" "http://www.w3.org/Graphics/SVG/1.1/DTD/svg11.dtd">
<!-- Creator: CorelDRAW -->
<svg xmlns="http://www.w3.org/2000/svg" xml:space="preserve" width="34.262mm" height="51.3678mm" version="1.1" style="shape-rendering:geometricPrecision; text-rendering:geometricPrecision; image-rendering:optimizeQuality; fill-rule:evenodd; clip-rule:evenodd"
viewBox="0 0 79.57 119.29"
 xmlns:xlink="http://www.w3.org/1999/xlink"
 xmlns:xodm="http://www.corel.com/coreldraw/odm/2003">
 <defs>
  <style type="text/css">
   <![CDATA[
    .str0 {stroke:#58458A;stroke-width:1.64;stroke-miterlimit:10}
    .fil0 {fill:none;fill-rule:nonzero}
   ]]>
  </style>
 </defs>
 <g id="Capa_x0020_1">
  <metadata id="CorelCorpID_0Corel-Layer"/>
  <g id="_1946253986000">
   <path class="fil0 str0" d="M76.64 84.32c0,18.86 -15.28,34.15 -34.14,34.15l0 -68.31c18.86,0.01 34.14,15.3 34.14,34.16z"/>
   <path class="fil0 str0" d="M38.19 6.09l-5.64 68.08c-18.51,-1.53 -32.34,-17.55 -31.28,-35.98l0.15 -1.76c1.99,-18.35 18.27,-31.87 36.77,-30.34z"/>
   <polygon class="fil0 str0" points="34.7,89.13 0.96,83.85 2.01,77.12 35.76,82.4 "/>
   <polygon class="fil0 str0" points="74.16,39.01 67.59,38.14 72.08,4.28 78.65,5.15 "/>
   <polygon class="fil0 str0" points="61.57,34.98 54.76,34.98 54.76,0.82 61.57,0.82 "/>
   <polygon class="fil0 str0" points="51.14,38.24 44.15,39.01 40.44,5.05 47.44,4.28 "/>
   <polygon class="fil0 str0" points="35.43,100.19 1.28,100.19 1.28,93.37 35.43,93.37 "/>
   <polygon class="fil0 str0" points="34.61,116.72 0.95,110.94 2.1,104.2 35.77,109.97 "/>
  </g>
 </g>
</svg>
