<?xml version="1.0" encoding="UTF-8"?>
<!DOCTYPE svg PUBLIC "-//W3C//DTD SVG 1.1//EN" "http://www.w3.org/Graphics/SVG/1.1/DTD/svg11.dtd">
<!-- Creator: CorelDRAW -->
<svg xmlns="http://www.w3.org/2000/svg" xml:space="preserve" width="34.1326mm" height="48.021mm" version="1.1" style="shape-rendering:geometricPrecision; text-rendering:geometricPrecision; image-rendering:optimizeQuality; fill-rule:evenodd; clip-rule:evenodd"
viewBox="0 0 74.45 104.74"
 xmlns:xlink="http://www.w3.org/1999/xlink"
 xmlns:xodm="http://www.corel.com/coreldraw/odm/2003">
 <defs>
  <style type="text/css">
   <![CDATA[
    .fil0 {fill:#9F3774;fill-rule:nonzero}
   ]]>
  </style>
 </defs>
 <g id="Capa_x0020_1">
  <metadata id="CorelCorpID_0Corel-Layer"/>
  <g id="_1946275214208">
   <path class="fil0" d="M71.79 74.04c-1.18,17.67 -16.46,31.04 -34.14,29.87l4.29 -64.01c17.67,1.19 31.03,16.47 29.85,34.15z"/>
   <path class="fil0" d="M31.53 1.64l3.42 64.07c-17.42,0.93 -32.33,-12.21 -33.69,-29.5l-0.09 -1.65c-0.48,-17.33 12.94,-31.99 30.36,-32.91z"/>
   <polygon class="fil0" points="33.46,78.25 1.47,80.59 1.01,74.21 33,71.87 "/>
   <polygon class="fil0" points="74.45,38.77 68.27,39.44 64.85,7.53 71.04,6.87 "/>
   <polygon class="fil0" points="56.65,34.83 50.33,33.86 55.22,2.15 61.54,3.12 "/>
   <polygon class="fil0" points="46.31,32.08 39.7,32.08 39.7,0 46.31,0 "/>
   <polygon class="fil0" points="32.64,88.31 0.84,92.5 -0,86.15 31.8,81.96 "/>
   <polygon class="fil0" points="32.69,104.74 0.68,102.69 1.09,96.28 33.1,98.33 "/>
  </g>
 </g>
</svg>
