<?xml version="1.0" encoding="UTF-8"?>
<!DOCTYPE svg PUBLIC "-//W3C//DTD SVG 1.1//EN" "http://www.w3.org/Graphics/SVG/1.1/DTD/svg11.dtd">
<!-- Creator: CorelDRAW -->
<svg xmlns="http://www.w3.org/2000/svg" xml:space="preserve" width="33.2726mm" height="47.9949mm" version="1.1" style="shape-rendering:geometricPrecision; text-rendering:geometricPrecision; image-rendering:optimizeQuality; fill-rule:evenodd; clip-rule:evenodd"
viewBox="0 0 66.84 96.42"
 xmlns:xlink="http://www.w3.org/1999/xlink"
 xmlns:xodm="http://www.corel.com/coreldraw/odm/2003">
 <defs>
  <style type="text/css">
   <![CDATA[
    .str0 {stroke:#E6285F;stroke-width:1.42;stroke-miterlimit:10}
    .fil0 {fill:none;fill-rule:nonzero}
   ]]>
  </style>
 </defs>
 <g id="Capa_x0020_1">
  <metadata id="CorelCorpID_0Corel-Layer"/>
  <g id="_1946355618560">
   <path class="fil0 str0" d="M66.08 67.06c-0.99,16.28 -14.99,28.69 -31.27,27.7l3.58 -58.98c16.28,0.99 28.68,14.99 27.69,31.28z"/>
   <path class="fil0 str0" d="M28.86 0.74l3.01 59.01c-16.04,0.82 -29.75,-11.32 -30.96,-27.24l-0.08 -1.52c-0.41,-15.96 11.99,-29.43 28.03,-30.25z"/>
   <polygon class="fil0 str0" points="30.66,72.05 1.11,72.05 1.11,66.16 30.66,66.16 "/>
   <polygon class="fil0 str0" points="66.12,30.7 60.39,30.7 60.39,1.15 66.12,1.15 "/>
   <polygon class="fil0 str0" points="57.75,29.64 52.01,30.98 45.3,2.21 51.04,0.87 "/>
   <polygon class="fil0 str0" points="42.66,30.7 36.57,30.7 36.57,1.15 42.66,1.15 "/>
   <polygon class="fil0 str0" points="30.94,81.23 1.86,86.41 0.82,80.61 29.91,75.43 "/>
   <polygon class="fil0 str0" points="30.66,95.71 1.11,95.71 1.11,89.79 30.66,89.79 "/>
  </g>
 </g>
</svg>
