<?xml version="1.0" encoding="UTF-8"?>
<!DOCTYPE svg PUBLIC "-//W3C//DTD SVG 1.1//EN" "http://www.w3.org/Graphics/SVG/1.1/DTD/svg11.dtd">
<!-- Creator: CorelDRAW -->
<svg xmlns="http://www.w3.org/2000/svg" xml:space="preserve" width="32.8228mm" height="46.4818mm" version="1.1" style="shape-rendering:geometricPrecision; text-rendering:geometricPrecision; image-rendering:optimizeQuality; fill-rule:evenodd; clip-rule:evenodd"
viewBox="0 0 61.82 87.55"
 xmlns:xlink="http://www.w3.org/1999/xlink"
 xmlns:xodm="http://www.corel.com/coreldraw/odm/2003">
 <defs>
  <style type="text/css">
   <![CDATA[
    .fil0 {fill:#1453A0;fill-rule:nonzero}
   ]]>
  </style>
 </defs>
 <g id="Capa_x0020_1">
  <metadata id="CorelCorpID_0Corel-Layer"/>
  <g id="_1946355663312">
   <path class="fil0" d="M60.45 61.36c-0.88,15.27 -13.96,26.94 -29.23,26.07l3.18 -55.31c15.27,0.88 26.93,13.97 26.05,29.24z"/>
   <path class="fil0" d="M30.47 1.66l-5.28 55.15c-14.99,-1.44 -26.04,-14.57 -24.99,-29.5l0.14 -1.42c1.8,-14.86 15.15,-25.66 30.14,-24.22z"/>
   <polygon class="fil0" points="27.9,66.69 0.2,66.69 0.2,61.16 27.9,61.16 "/>
   <polygon class="fil0" points="61.82,29.31 56.47,29.76 54.18,2.15 59.53,1.7 "/>
   <polygon class="fil0" points="48.76,28.13 43.27,27.55 46.16,0 51.66,0.58 "/>
   <polygon class="fil0" points="42,28.71 36.31,29.12 34.29,1.49 39.98,1.08 "/>
   <polygon class="fil0" points="27.58,79.04 -0,76.47 0.51,70.97 28.09,73.53 "/>
   <polygon class="fil0" points="27.74,87.55 0.07,86.15 0.35,80.6 28.02,82 "/>
  </g>
 </g>
</svg>
