<?xml version="1.0" encoding="UTF-8"?>
<!DOCTYPE svg PUBLIC "-//W3C//DTD SVG 1.1//EN" "http://www.w3.org/Graphics/SVG/1.1/DTD/svg11.dtd">
<!-- Creator: CorelDRAW -->
<svg xmlns="http://www.w3.org/2000/svg" xml:space="preserve" width="34.3826mm" height="51.7654mm" version="1.1" style="shape-rendering:geometricPrecision; text-rendering:geometricPrecision; image-rendering:optimizeQuality; fill-rule:evenodd; clip-rule:evenodd"
viewBox="0 0 65.04 97.93"
 xmlns:xlink="http://www.w3.org/1999/xlink"
 xmlns:xodm="http://www.corel.com/coreldraw/odm/2003">
 <defs>
  <style type="text/css">
   <![CDATA[
    .str0 {stroke:#58458A;stroke-width:1.33;stroke-miterlimit:10}
    .fil0 {fill:none;fill-rule:nonzero}
   ]]>
  </style>
 </defs>
 <g id="Capa_x0020_1">
  <metadata id="CorelCorpID_0Corel-Layer"/>
  <g id="_1946272499952">
   <path class="fil0 str0" d="M64.32 67.59c1.03,15.33 -10.56,28.59 -25.88,29.62l-3.73 -55.52c15.33,-1.03 28.58,10.57 29.61,25.89z"/>
   <path class="fil0 str0" d="M25.35 0.74l6.59 55.25c-15.02,1.79 -28.67,-8.74 -30.83,-23.62l-0.17 -1.42c-1.4,-14.97 9.38,-28.42 24.4,-30.21z"/>
   <polygon class="fil0 str0" points="28.42,70.3 0.73,67.6 1.27,62.08 28.96,64.78 "/>
   <polygon class="fil0 str0" points="63.18,29.78 57.8,30.18 55.73,2.43 61.11,2.03 "/>
   <polygon class="fil0 str0" points="48.47,31.58 42.99,30.72 47.32,3.23 52.8,4.1 "/>
   <polygon class="fil0 str0" points="38.65,30.24 32.95,29.66 35.74,1.98 41.44,2.55 "/>
   <polygon class="fil0 str0" points="29.07,77.67 1.24,77.67 1.24,72.12 29.07,72.12 "/>
   <polygon class="fil0 str0" points="28.42,92.57 0.73,89.88 1.27,84.33 28.96,87.03 "/>
  </g>
 </g>
</svg>
