<?xml version="1.0" encoding="UTF-8"?>
<!DOCTYPE svg PUBLIC "-//W3C//DTD SVG 1.1//EN" "http://www.w3.org/Graphics/SVG/1.1/DTD/svg11.dtd">
<!-- Creator: CorelDRAW -->
<svg xmlns="http://www.w3.org/2000/svg" xml:space="preserve" width="32.3605mm" height="47.0705mm" version="1.1" style="shape-rendering:geometricPrecision; text-rendering:geometricPrecision; image-rendering:optimizeQuality; fill-rule:evenodd; clip-rule:evenodd"
viewBox="0 0 418 608"
 xmlns:xlink="http://www.w3.org/1999/xlink"
 xmlns:xodm="http://www.corel.com/coreldraw/odm/2003">
 <defs>
  <style type="text/css">
   <![CDATA[
    .fil0 {fill:white;fill-rule:nonzero}
   ]]>
  </style>
 </defs>
 <g id="Capa_x0020_1">
  <metadata id="CorelCorpID_0Corel-Layer"/>
  <path class="fil0" d="M417.91 418.03c0,104.9 -85.01,189.94 -189.89,189.97l0 -379.94c104.88,0.03 189.89,85.07 189.89,189.97z"/>
  <path class="fil0" d="M189.9 0l0 379.94c-103.29,0 -187.31,-82.43 -189.9,-185.07l0 -9.79c2.6,-102.65 86.62,-185.07 189.9,-185.07z"/>
  <polygon class="fil0" points="189.97,455.9 0,455.9 0,418 189.97,418 "/>
  <polygon class="fil0" points="418,190 381.16,190 381.16,0 418,0 "/>
  <polygon class="fil0" points="343.11,190 305.21,190 305.21,0 343.11,0 "/>
  <polygon class="fil0" points="267.15,190 228.02,190 228.02,0 267.15,0 "/>
  <polygon class="fil0" points="189.97,531.88 0,531.88 0,493.96 189.97,493.96 "/>
  <polygon class="fil0" points="189.97,608 0,608 0,569.94 189.97,569.94 "/>
 </g>
</svg>
